<svg xmlns="http://www.w3.org/2000/svg" xmlns:xlink="http://www.w3.org/1999/xlink" width="500" zoomAndPan="magnify" viewBox="0 0 375 374.999991" height="500" preserveAspectRatio="xMidYMid meet" version="1.2"><g id="0aceb24950"><path style=" stroke:none;fill-rule:nonzero;fill:#2479f6;fill-opacity:1;" d="M 368.210938 357.734375 L 263.046875 146.210938 C 232.082031 173.90625 204.832031 222.496094 206.351562 262.308594 L 238.171875 325.058594 C 239.316406 327.3125 241.261719 329.050781 243.632812 329.929688 L 355.710938 371.625 C 364.246094 374.800781 372.265625 365.886719 368.210938 357.734375 Z M 179.488281 242.140625 C 179.214844 242.535156 178.96875 242.957031 178.746094 243.410156 L 138.820312 324.328125 C 137.683594 326.625 135.714844 328.40625 133.3125 329.304688 L 19.167969 371.761719 C 10.679688 374.921875 2.675781 366.121094 6.617188 357.972656 L 176.054688 7.636719 C 179.691406 0.117188 190.378906 0.0585938 194.097656 7.535156 L 259.449219 138.984375 C 223.617188 164.597656 195.554688 200.394531 179.488281 242.140625 "/></g></svg>