<svg xmlns="http://www.w3.org/2000/svg" xmlns:xlink="http://www.w3.org/1999/xlink" width="500" zoomAndPan="magnify" viewBox="0 0 375 374.999991" height="500" preserveAspectRatio="xMidYMid meet" version="1.2"><g id="eaeff49017"><path style=" stroke:none;fill-rule:nonzero;fill:#000000;fill-opacity:1;" d="M 367.882812 357.761719 L 262.90625 146.621094 C 232 174.265625 204.800781 222.769531 206.316406 262.511719 L 238.078125 325.144531 C 239.21875 327.394531 241.164062 329.128906 243.527344 330.007812 L 355.40625 371.625 C 363.925781 374.796875 371.933594 365.902344 367.882812 357.761719 Z M 179.5 242.375 C 179.230469 242.773438 178.980469 243.191406 178.757812 243.644531 L 138.90625 324.417969 C 137.773438 326.710938 135.808594 328.488281 133.410156 329.382812 L 19.472656 371.765625 C 11 374.921875 3.007812 366.136719 6.945312 358 L 176.074219 8.296875 C 179.703125 0.792969 190.375 0.730469 194.085938 8.195312 L 259.320312 139.410156 C 223.550781 164.976562 195.539062 200.707031 179.5 242.375 "/></g></svg>