<svg xmlns="http://www.w3.org/2000/svg" xmlns:xlink="http://www.w3.org/1999/xlink" width="281" zoomAndPan="magnify" viewBox="0 0 210.75 71.249999" height="95" preserveAspectRatio="xMidYMid meet" version="1.2"><defs><clipPath id="d6fc9e18fa"><path d="M 1 0.183594 L 69.996094 0.183594 L 69.996094 70 L 1 70 Z M 1 0.183594 "/></clipPath><clipPath id="bbf38fad80"><path d="M 82 14 L 209.527344 14 L 209.527344 57 L 82 57 Z M 82 14 "/></clipPath><clipPath id="1cd1d3dde8"><rect x="0" width="128" y="0" height="43"/></clipPath></defs><g id="a6eb14b517"><g clip-rule="nonzero" clip-path="url(#d6fc9e18fa)"><path style=" stroke:none;fill-rule:nonzero;fill:#000000;fill-opacity:1;" d="M 69.335938 67.089844 L 49.667969 27.527344 C 43.875 32.707031 38.78125 41.796875 39.066406 49.242188 L 45.015625 60.980469 C 45.230469 61.398438 45.59375 61.726562 46.035156 61.890625 L 67 69.6875 C 68.59375 70.28125 70.09375 68.613281 69.335938 67.089844 Z M 34.039062 45.46875 C 33.988281 45.542969 33.941406 45.625 33.902344 45.707031 L 26.433594 60.84375 C 26.222656 61.273438 25.851562 61.605469 25.402344 61.773438 L 4.054688 69.714844 C 2.46875 70.304688 0.972656 68.660156 1.707031 67.132812 L 33.398438 1.609375 C 34.078125 0.207031 36.078125 0.195312 36.773438 1.59375 L 48.996094 26.175781 C 42.292969 30.96875 37.046875 37.664062 34.039062 45.46875 "/></g><g clip-rule="nonzero" clip-path="url(#bbf38fad80)"><g transform="matrix(1,0,0,1,82,14)"><g clip-path="url(#1cd1d3dde8)"><g style="fill:#000000;fill-opacity:1;"><g transform="translate(0.850507, 31.659362)"><path style="stroke:none" d="M 15.1875 -3.765625 L 7.203125 -3.765625 L 5.9375 0 L 0.484375 0 L 8.21875 -21.359375 L 14.234375 -21.359375 L 21.96875 0 L 16.453125 0 Z M 13.84375 -7.78125 L 11.1875 -15.609375 L 8.578125 -7.78125 Z M 13.84375 -7.78125 "/></g></g><g style="fill:#000000;fill-opacity:1;"><g transform="translate(23.271173, 31.659362)"><path style="stroke:none" d="M 18.15625 -14.484375 C 18.15625 -13.242188 17.867188 -12.109375 17.296875 -11.078125 C 16.734375 -10.054688 15.863281 -9.234375 14.6875 -8.609375 C 13.507812 -7.984375 12.050781 -7.671875 10.3125 -7.671875 L 7.09375 -7.671875 L 7.09375 0 L 1.890625 0 L 1.890625 -21.359375 L 10.3125 -21.359375 C 12.019531 -21.359375 13.457031 -21.0625 14.625 -20.46875 C 15.800781 -19.882812 16.679688 -19.070312 17.265625 -18.03125 C 17.859375 -17 18.15625 -15.816406 18.15625 -14.484375 Z M 9.921875 -11.796875 C 10.910156 -11.796875 11.648438 -12.03125 12.140625 -12.5 C 12.628906 -12.96875 12.875 -13.628906 12.875 -14.484375 C 12.875 -15.335938 12.628906 -15.992188 12.140625 -16.453125 C 11.648438 -16.921875 10.910156 -17.15625 9.921875 -17.15625 L 7.09375 -17.15625 L 7.09375 -11.796875 Z M 9.921875 -11.796875 "/></g></g><g style="fill:#000000;fill-opacity:1;"><g transform="translate(42.254202, 31.659362)"><path style="stroke:none" d="M 11.984375 0.21875 C 9.972656 0.21875 8.128906 -0.242188 6.453125 -1.171875 C 4.785156 -2.109375 3.457031 -3.414062 2.46875 -5.09375 C 1.488281 -6.769531 1 -8.648438 1 -10.734375 C 1 -12.828125 1.488281 -14.703125 2.46875 -16.359375 C 3.457031 -18.023438 4.785156 -19.320312 6.453125 -20.25 C 8.128906 -21.1875 9.972656 -21.65625 11.984375 -21.65625 C 13.992188 -21.65625 15.832031 -21.1875 17.5 -20.25 C 19.175781 -19.320312 20.492188 -18.023438 21.453125 -16.359375 C 22.421875 -14.703125 22.90625 -12.828125 22.90625 -10.734375 C 22.90625 -8.648438 22.414062 -6.769531 21.4375 -5.09375 C 20.46875 -3.414062 19.148438 -2.109375 17.484375 -1.171875 C 15.828125 -0.242188 13.992188 0.21875 11.984375 0.21875 Z M 11.984375 -4.53125 C 13.691406 -4.53125 15.054688 -5.097656 16.078125 -6.234375 C 17.097656 -7.367188 17.609375 -8.867188 17.609375 -10.734375 C 17.609375 -12.617188 17.097656 -14.125 16.078125 -15.25 C 15.054688 -16.375 13.691406 -16.9375 11.984375 -16.9375 C 10.265625 -16.9375 8.890625 -16.378906 7.859375 -15.265625 C 6.835938 -14.148438 6.328125 -12.640625 6.328125 -10.734375 C 6.328125 -8.847656 6.835938 -7.34375 7.859375 -6.21875 C 8.890625 -5.09375 10.265625 -4.53125 11.984375 -4.53125 Z M 11.984375 -4.53125 "/></g></g><g style="fill:#000000;fill-opacity:1;"><g transform="translate(66.165515, 31.659362)"><path style="stroke:none" d="M 9.890625 -21.359375 C 12.140625 -21.359375 14.101562 -20.910156 15.78125 -20.015625 C 17.46875 -19.117188 18.769531 -17.863281 19.6875 -16.25 C 20.613281 -14.644531 21.078125 -12.785156 21.078125 -10.671875 C 21.078125 -8.585938 20.613281 -6.734375 19.6875 -5.109375 C 18.769531 -3.484375 17.460938 -2.222656 15.765625 -1.328125 C 14.078125 -0.441406 12.117188 0 9.890625 0 L 1.890625 0 L 1.890625 -21.359375 Z M 9.546875 -4.5 C 11.515625 -4.5 13.046875 -5.035156 14.140625 -6.109375 C 15.234375 -7.191406 15.78125 -8.710938 15.78125 -10.671875 C 15.78125 -12.640625 15.234375 -14.171875 14.140625 -15.265625 C 13.046875 -16.367188 11.515625 -16.921875 9.546875 -16.921875 L 7.09375 -16.921875 L 7.09375 -4.5 Z M 9.546875 -4.5 "/></g></g><g style="fill:#000000;fill-opacity:1;"><g transform="translate(88.281956, 31.659362)"><path style="stroke:none" d="M 7.09375 -17.1875 L 7.09375 -12.875 L 14.0625 -12.875 L 14.0625 -8.859375 L 7.09375 -8.859375 L 7.09375 -4.171875 L 14.96875 -4.171875 L 14.96875 0 L 1.890625 0 L 1.890625 -21.359375 L 14.96875 -21.359375 L 14.96875 -17.1875 Z M 7.09375 -17.1875 "/></g></g><g style="fill:#000000;fill-opacity:1;"><g transform="translate(104.739997, 31.659362)"><path style="stroke:none" d="M 14.96875 0 L 10.625 -6.546875 L 6.78125 0 L 0.875 0 L 7.734375 -10.859375 L 0.734375 -21.359375 L 6.78125 -21.359375 L 11.078125 -14.90625 L 14.84375 -21.359375 L 20.75 -21.359375 L 13.96875 -10.59375 L 21.015625 0 Z M 14.96875 0 "/></g></g></g></g></g></g></svg>