<svg xmlns="http://www.w3.org/2000/svg" xmlns:xlink="http://www.w3.org/1999/xlink" width="328" zoomAndPan="magnify" viewBox="0 0 246 45.749998" height="61" preserveAspectRatio="xMidYMid meet" version="1.2"><defs><clipPath id="0354f275b6"><path d="M 0.667969 0 L 245.332031 0 L 245.332031 45.5 L 0.667969 45.5 Z M 0.667969 0 "/></clipPath><clipPath id="44b2ea73f9"><rect x="0" width="246" y="0" height="46"/></clipPath></defs><g id="69cc4abace"><g clip-rule="nonzero" clip-path="url(#0354f275b6)"><g transform="matrix(1,0,0,1,0,0)"><g clip-path="url(#44b2ea73f9)"><g style="fill:#ffffff;fill-opacity:1;"><g transform="translate(0.668482, 42.998026)"><path style="stroke:none" d="M 29.546875 -7.34375 L 14.03125 -7.34375 L 11.546875 0 L 0.953125 0 L 15.984375 -41.5625 L 27.703125 -41.5625 L 42.75 0 L 32.03125 0 Z M 26.9375 -15.15625 L 21.78125 -30.375 L 16.6875 -15.15625 Z M 26.9375 -15.15625 "/></g></g><g style="fill:#ffffff;fill-opacity:1;"><g transform="translate(44.2955, 42.998026)"><path style="stroke:none" d="M 35.34375 -28.1875 C 35.34375 -25.769531 34.789062 -23.566406 33.6875 -21.578125 C 32.582031 -19.585938 30.882812 -17.976562 28.59375 -16.75 C 26.300781 -15.53125 23.457031 -14.921875 20.0625 -14.921875 L 13.796875 -14.921875 L 13.796875 0 L 3.671875 0 L 3.671875 -41.5625 L 20.0625 -41.5625 C 23.382812 -41.5625 26.1875 -40.988281 28.46875 -39.84375 C 30.757812 -38.695312 32.476562 -37.117188 33.625 -35.109375 C 34.769531 -33.097656 35.34375 -30.789062 35.34375 -28.1875 Z M 19.296875 -22.96875 C 21.234375 -22.96875 22.675781 -23.421875 23.625 -24.328125 C 24.570312 -25.234375 25.046875 -26.519531 25.046875 -28.1875 C 25.046875 -29.84375 24.570312 -31.125 23.625 -32.03125 C 22.675781 -32.9375 21.234375 -33.390625 19.296875 -33.390625 L 13.796875 -33.390625 L 13.796875 -22.96875 Z M 19.296875 -22.96875 "/></g></g><g style="fill:#ffffff;fill-opacity:1;"><g transform="translate(81.233429, 42.998026)"><path style="stroke:none" d="M 23.328125 0.421875 C 19.421875 0.421875 15.835938 -0.484375 12.578125 -2.296875 C 9.328125 -4.117188 6.742188 -6.65625 4.828125 -9.90625 C 2.910156 -13.164062 1.953125 -16.832031 1.953125 -20.90625 C 1.953125 -24.96875 2.910156 -28.613281 4.828125 -31.84375 C 6.742188 -35.082031 9.328125 -37.609375 12.578125 -39.421875 C 15.835938 -41.242188 19.421875 -42.15625 23.328125 -42.15625 C 27.234375 -42.15625 30.8125 -41.242188 34.0625 -39.421875 C 37.320312 -37.609375 39.890625 -35.082031 41.765625 -31.84375 C 43.640625 -28.613281 44.578125 -24.96875 44.578125 -20.90625 C 44.578125 -16.832031 43.628906 -13.164062 41.734375 -9.90625 C 39.835938 -6.65625 37.269531 -4.117188 34.03125 -2.296875 C 30.800781 -0.484375 27.234375 0.421875 23.328125 0.421875 Z M 23.328125 -8.828125 C 26.640625 -8.828125 29.289062 -9.929688 31.28125 -12.140625 C 33.28125 -14.347656 34.28125 -17.269531 34.28125 -20.90625 C 34.28125 -24.570312 33.28125 -27.5 31.28125 -29.6875 C 29.289062 -31.875 26.640625 -32.96875 23.328125 -32.96875 C 19.972656 -32.96875 17.296875 -31.882812 15.296875 -29.71875 C 13.304688 -27.550781 12.3125 -24.613281 12.3125 -20.90625 C 12.3125 -17.226562 13.304688 -14.296875 15.296875 -12.109375 C 17.296875 -9.921875 19.972656 -8.828125 23.328125 -8.828125 Z M 23.328125 -8.828125 "/></g></g><g style="fill:#ffffff;fill-opacity:1;"><g transform="translate(127.761007, 42.998026)"><path style="stroke:none" d="M 19.234375 -41.5625 C 23.617188 -41.5625 27.445312 -40.691406 30.71875 -38.953125 C 34 -37.210938 36.535156 -34.773438 38.328125 -31.640625 C 40.128906 -28.503906 41.03125 -24.882812 41.03125 -20.78125 C 41.03125 -16.71875 40.128906 -13.101562 38.328125 -9.9375 C 36.535156 -6.78125 33.988281 -4.332031 30.6875 -2.59375 C 27.394531 -0.863281 23.578125 0 19.234375 0 L 3.671875 0 L 3.671875 -41.5625 Z M 18.59375 -8.765625 C 22.414062 -8.765625 25.390625 -9.804688 27.515625 -11.890625 C 29.648438 -13.984375 30.71875 -16.945312 30.71875 -20.78125 C 30.71875 -24.601562 29.648438 -27.582031 27.515625 -29.71875 C 25.390625 -31.851562 22.414062 -32.921875 18.59375 -32.921875 L 13.796875 -32.921875 L 13.796875 -8.765625 Z M 18.59375 -8.765625 "/></g></g><g style="fill:#ffffff;fill-opacity:1;"><g transform="translate(170.796054, 42.998026)"><path style="stroke:none" d="M 13.796875 -33.453125 L 13.796875 -25.046875 L 27.359375 -25.046875 L 27.359375 -17.234375 L 13.796875 -17.234375 L 13.796875 -8.109375 L 29.125 -8.109375 L 29.125 0 L 3.671875 0 L 3.671875 -41.5625 L 29.125 -41.5625 L 29.125 -33.453125 Z M 13.796875 -33.453125 "/></g></g><g style="fill:#ffffff;fill-opacity:1;"><g transform="translate(202.820761, 42.998026)"><path style="stroke:none" d="M 29.125 0 L 20.65625 -12.734375 L 13.203125 0 L 1.71875 0 L 15.03125 -21.140625 L 1.421875 -41.5625 L 13.203125 -41.5625 L 21.546875 -29.015625 L 28.890625 -41.5625 L 40.375 -41.5625 L 27.171875 -20.609375 L 40.90625 0 Z M 29.125 0 "/></g></g></g></g></g></g></svg>