<svg xmlns="http://www.w3.org/2000/svg" xmlns:xlink="http://www.w3.org/1999/xlink" width="311" zoomAndPan="magnify" viewBox="0 0 233.25 127.500001" height="170" preserveAspectRatio="xMidYMid meet" version="1.2"><defs><clipPath id="1b659167e2"><rect x="0" width="128" y="0" height="44"/></clipPath><clipPath id="100beb7d78"><path d="M 4 13 L 72.972656 13 L 72.972656 83 L 4 83 Z M 4 13 "/></clipPath></defs><g id="3f7201222f"><g transform="matrix(1,0,0,1,104,26)"><g clip-path="url(#1b659167e2)"><g style="fill:#ffffff;fill-opacity:1;"><g transform="translate(0.561539, 32.475949)"><path style="stroke:none" d="M 15.28125 -3.796875 L 7.265625 -3.796875 L 5.96875 0 L 0.484375 0 L 8.265625 -21.5 L 14.328125 -21.5 L 22.109375 0 L 16.5625 0 Z M 13.9375 -7.84375 L 11.265625 -15.703125 L 8.640625 -7.84375 Z M 13.9375 -7.84375 "/></g></g><g style="fill:#ffffff;fill-opacity:1;"><g transform="translate(23.129709, 32.475949)"><path style="stroke:none" d="M 18.28125 -14.578125 C 18.28125 -13.328125 17.992188 -12.1875 17.421875 -11.15625 C 16.847656 -10.125 15.96875 -9.289062 14.78125 -8.65625 C 13.601562 -8.03125 12.132812 -7.71875 10.375 -7.71875 L 7.140625 -7.71875 L 7.140625 0 L 1.90625 0 L 1.90625 -21.5 L 10.375 -21.5 C 12.09375 -21.5 13.539062 -21.203125 14.71875 -20.609375 C 15.90625 -20.015625 16.796875 -19.195312 17.390625 -18.15625 C 17.984375 -17.113281 18.28125 -15.921875 18.28125 -14.578125 Z M 9.984375 -11.875 C 10.984375 -11.875 11.726562 -12.109375 12.21875 -12.578125 C 12.707031 -13.054688 12.953125 -13.722656 12.953125 -14.578125 C 12.953125 -15.429688 12.707031 -16.09375 12.21875 -16.5625 C 11.726562 -17.03125 10.984375 -17.265625 9.984375 -17.265625 L 7.140625 -17.265625 L 7.140625 -11.875 Z M 9.984375 -11.875 "/></g></g><g style="fill:#ffffff;fill-opacity:1;"><g transform="translate(42.237627, 32.475949)"><path style="stroke:none" d="M 12.0625 0.21875 C 10.039062 0.21875 8.1875 -0.25 6.5 -1.1875 C 4.820312 -2.132812 3.488281 -3.445312 2.5 -5.125 C 1.507812 -6.8125 1.015625 -8.707031 1.015625 -10.8125 C 1.015625 -12.914062 1.507812 -14.800781 2.5 -16.46875 C 3.488281 -18.144531 4.820312 -19.453125 6.5 -20.390625 C 8.1875 -21.335938 10.039062 -21.8125 12.0625 -21.8125 C 14.082031 -21.8125 15.9375 -21.335938 17.625 -20.390625 C 19.3125 -19.453125 20.640625 -18.144531 21.609375 -16.46875 C 22.578125 -14.800781 23.0625 -12.914062 23.0625 -10.8125 C 23.0625 -8.707031 22.570312 -6.8125 21.59375 -5.125 C 20.613281 -3.445312 19.285156 -2.132812 17.609375 -1.1875 C 15.929688 -0.25 14.082031 0.21875 12.0625 0.21875 Z M 12.0625 -4.5625 C 13.78125 -4.5625 15.15625 -5.132812 16.1875 -6.28125 C 17.21875 -7.425781 17.734375 -8.9375 17.734375 -10.8125 C 17.734375 -12.707031 17.21875 -14.222656 16.1875 -15.359375 C 15.15625 -16.492188 13.78125 -17.0625 12.0625 -17.0625 C 10.332031 -17.0625 8.953125 -16.5 7.921875 -15.375 C 6.890625 -14.25 6.375 -12.726562 6.375 -10.8125 C 6.375 -8.914062 6.890625 -7.398438 7.921875 -6.265625 C 8.953125 -5.128906 10.332031 -4.5625 12.0625 -4.5625 Z M 12.0625 -4.5625 "/></g></g><g style="fill:#ffffff;fill-opacity:1;"><g transform="translate(66.306252, 32.475949)"><path style="stroke:none" d="M 9.953125 -21.5 C 12.222656 -21.5 14.203125 -21.046875 15.890625 -20.140625 C 17.585938 -19.242188 18.898438 -17.984375 19.828125 -16.359375 C 20.753906 -14.742188 21.21875 -12.875 21.21875 -10.75 C 21.21875 -8.644531 20.753906 -6.773438 19.828125 -5.140625 C 18.898438 -3.503906 17.582031 -2.238281 15.875 -1.34375 C 14.175781 -0.445312 12.203125 0 9.953125 0 L 1.90625 0 L 1.90625 -21.5 Z M 9.609375 -4.53125 C 11.597656 -4.53125 13.140625 -5.070312 14.234375 -6.15625 C 15.335938 -7.238281 15.890625 -8.769531 15.890625 -10.75 C 15.890625 -12.726562 15.335938 -14.269531 14.234375 -15.375 C 13.140625 -16.476562 11.597656 -17.03125 9.609375 -17.03125 L 7.140625 -17.03125 L 7.140625 -4.53125 Z M 9.609375 -4.53125 "/></g></g><g style="fill:#ffffff;fill-opacity:1;"><g transform="translate(88.568196, 32.475949)"><path style="stroke:none" d="M 7.140625 -17.296875 L 7.140625 -12.953125 L 14.15625 -12.953125 L 14.15625 -8.90625 L 7.140625 -8.90625 L 7.140625 -4.203125 L 15.0625 -4.203125 L 15.0625 0 L 1.90625 0 L 1.90625 -21.5 L 15.0625 -21.5 L 15.0625 -17.296875 Z M 7.140625 -17.296875 "/></g></g><g style="fill:#ffffff;fill-opacity:1;"><g transform="translate(105.134515, 32.475949)"><path style="stroke:none" d="M 15.0625 0 L 10.6875 -6.578125 L 6.828125 0 L 0.890625 0 L 7.78125 -10.9375 L 0.734375 -21.5 L 6.828125 -21.5 L 11.140625 -15 L 14.9375 -21.5 L 20.890625 -21.5 L 14.0625 -10.65625 L 21.15625 0 Z M 15.0625 0 "/></g></g></g></g><path style="fill:none;stroke-width:1;stroke-linecap:round;stroke-linejoin:miter;stroke:#ffffff;stroke-opacity:1;stroke-miterlimit:4;" d="M 0.500126 0.500819 L 124.745882 0.500819 " transform="matrix(0,0.74707,-0.74707,0,87.858522,0.0052772)"/><g clip-rule="nonzero" clip-path="url(#100beb7d78)"><path style=" stroke:none;fill-rule:nonzero;fill:#ffffff;fill-opacity:1;" d="M 72.308594 80.046875 L 52.507812 40.226562 C 46.679688 45.441406 41.550781 54.585938 41.835938 62.082031 L 47.824219 73.894531 C 48.042969 74.320312 48.40625 74.648438 48.855469 74.8125 L 69.953125 82.664062 C 71.5625 83.261719 73.070312 81.582031 72.308594 80.046875 Z M 36.777344 58.285156 C 36.726562 58.359375 36.679688 58.441406 36.636719 58.523438 L 29.121094 73.757812 C 28.910156 74.191406 28.539062 74.527344 28.085938 74.695312 L 6.597656 82.6875 C 5 83.285156 3.492188 81.625 4.234375 80.09375 L 36.132812 14.136719 C 36.816406 12.722656 38.828125 12.710938 39.527344 14.121094 L 51.832031 38.867188 C 45.085938 43.6875 39.804688 50.425781 36.777344 58.285156 "/></g><g style="fill:#ffffff;fill-opacity:1;"><g transform="translate(74.325254, 123.732289)"><path style="stroke:none" d="M 3.609375 0.078125 C 3.054688 0.078125 2.554688 -0.0195312 2.109375 -0.21875 C 1.671875 -0.414062 1.328125 -0.6875 1.078125 -1.03125 C 0.828125 -1.382812 0.695312 -1.789062 0.6875 -2.25 L 1.875 -2.25 C 1.90625 -1.851562 2.0625 -1.519531 2.34375 -1.25 C 2.632812 -0.976562 3.054688 -0.84375 3.609375 -0.84375 C 4.140625 -0.84375 4.554688 -0.972656 4.859375 -1.234375 C 5.160156 -1.503906 5.3125 -1.84375 5.3125 -2.25 C 5.3125 -2.570312 5.222656 -2.832031 5.046875 -3.03125 C 4.867188 -3.238281 4.644531 -3.394531 4.375 -3.5 C 4.113281 -3.601562 3.753906 -3.71875 3.296875 -3.84375 C 2.742188 -3.988281 2.296875 -4.132812 1.953125 -4.28125 C 1.617188 -4.425781 1.332031 -4.65625 1.09375 -4.96875 C 0.851562 -5.28125 0.734375 -5.695312 0.734375 -6.21875 C 0.734375 -6.675781 0.847656 -7.082031 1.078125 -7.4375 C 1.316406 -7.800781 1.648438 -8.078125 2.078125 -8.265625 C 2.503906 -8.460938 2.992188 -8.5625 3.546875 -8.5625 C 4.335938 -8.5625 4.984375 -8.363281 5.484375 -7.96875 C 5.992188 -7.570312 6.28125 -7.046875 6.34375 -6.390625 L 5.125 -6.390625 C 5.082031 -6.710938 4.910156 -6.992188 4.609375 -7.234375 C 4.316406 -7.484375 3.925781 -7.609375 3.4375 -7.609375 C 2.96875 -7.609375 2.585938 -7.488281 2.296875 -7.25 C 2.015625 -7.019531 1.875 -6.6875 1.875 -6.25 C 1.875 -5.945312 1.957031 -5.695312 2.125 -5.5 C 2.300781 -5.3125 2.515625 -5.164062 2.765625 -5.0625 C 3.023438 -4.957031 3.382812 -4.84375 3.84375 -4.71875 C 4.40625 -4.5625 4.851562 -4.40625 5.1875 -4.25 C 5.53125 -4.101562 5.820312 -3.875 6.0625 -3.5625 C 6.300781 -3.257812 6.421875 -2.835938 6.421875 -2.296875 C 6.421875 -1.890625 6.3125 -1.503906 6.09375 -1.140625 C 5.875 -0.773438 5.550781 -0.476562 5.125 -0.25 C 4.695312 -0.03125 4.191406 0.078125 3.609375 0.078125 Z M 3.609375 0.078125 "/></g></g><g style="fill:#ffffff;fill-opacity:1;"><g transform="translate(84.433137, 123.732289)"><path style="stroke:none" d="M 4.765625 0.078125 C 3.984375 0.078125 3.269531 -0.101562 2.625 -0.46875 C 1.976562 -0.832031 1.460938 -1.34375 1.078125 -2 C 0.703125 -2.664062 0.515625 -3.410156 0.515625 -4.234375 C 0.515625 -5.054688 0.703125 -5.796875 1.078125 -6.453125 C 1.460938 -7.109375 1.976562 -7.617188 2.625 -7.984375 C 3.269531 -8.359375 3.984375 -8.546875 4.765625 -8.546875 C 5.554688 -8.546875 6.273438 -8.359375 6.921875 -7.984375 C 7.566406 -7.617188 8.078125 -7.109375 8.453125 -6.453125 C 8.828125 -5.804688 9.015625 -5.066406 9.015625 -4.234375 C 9.015625 -3.398438 8.828125 -2.65625 8.453125 -2 C 8.078125 -1.34375 7.566406 -0.832031 6.921875 -0.46875 C 6.273438 -0.101562 5.554688 0.078125 4.765625 0.078125 Z M 4.765625 -0.875 C 5.359375 -0.875 5.890625 -1.007812 6.359375 -1.28125 C 6.828125 -1.5625 7.195312 -1.953125 7.46875 -2.453125 C 7.738281 -2.960938 7.875 -3.554688 7.875 -4.234375 C 7.875 -4.910156 7.738281 -5.5 7.46875 -6 C 7.195312 -6.507812 6.828125 -6.898438 6.359375 -7.171875 C 5.890625 -7.453125 5.359375 -7.59375 4.765625 -7.59375 C 4.171875 -7.59375 3.640625 -7.453125 3.171875 -7.171875 C 2.703125 -6.898438 2.332031 -6.507812 2.0625 -6 C 1.789062 -5.5 1.65625 -4.910156 1.65625 -4.234375 C 1.65625 -3.554688 1.789062 -2.960938 2.0625 -2.453125 C 2.332031 -1.953125 2.703125 -1.5625 3.171875 -1.28125 C 3.640625 -1.007812 4.171875 -0.875 4.765625 -0.875 Z M 4.765625 -0.875 "/></g></g><g style="fill:#ffffff;fill-opacity:1;"><g transform="translate(96.952196, 123.732289)"><path style="stroke:none" d="M 5.703125 -8.453125 L 5.703125 -7.546875 L 2.03125 -7.546875 L 2.03125 -4.703125 L 5.015625 -4.703125 L 5.015625 -3.8125 L 2.03125 -3.8125 L 2.03125 0 L 0.9375 0 L 0.9375 -8.453125 Z M 5.703125 -8.453125 "/></g></g><g style="fill:#ffffff;fill-opacity:1;"><g transform="translate(106.054413, 123.732289)"><path style="stroke:none" d="M 6.140625 -8.453125 L 6.140625 -7.546875 L 3.828125 -7.546875 L 3.828125 0 L 2.734375 0 L 2.734375 -7.546875 L 0.40625 -7.546875 L 0.40625 -8.453125 Z M 6.140625 -8.453125 "/></g></g><g style="fill:#ffffff;fill-opacity:1;"><g transform="translate(115.604934, 123.732289)"><path style="stroke:none" d="M 11.5625 -8.453125 L 9.109375 0 L 7.875 0 L 5.90625 -6.796875 L 3.875 0 L 2.640625 0.015625 L 0.28125 -8.453125 L 1.453125 -8.453125 L 3.296875 -1.28125 L 5.328125 -8.453125 L 6.578125 -8.453125 L 8.515625 -1.3125 L 10.359375 -8.453125 Z M 11.5625 -8.453125 "/></g></g><g style="fill:#ffffff;fill-opacity:1;"><g transform="translate(130.426134, 123.732289)"><path style="stroke:none" d="M 5.921875 -1.875 L 2.25 -1.875 L 1.5625 0 L 0.40625 0 L 3.453125 -8.40625 L 4.734375 -8.40625 L 7.765625 0 L 6.609375 0 Z M 5.609375 -2.78125 L 4.09375 -7.046875 L 2.5625 -2.78125 Z M 5.609375 -2.78125 "/></g></g><g style="fill:#ffffff;fill-opacity:1;"><g transform="translate(141.588152, 123.732289)"><path style="stroke:none" d="M 5.390625 0 L 3.375 -3.453125 L 2.03125 -3.453125 L 2.03125 0 L 0.9375 0 L 0.9375 -8.453125 L 3.65625 -8.453125 C 4.300781 -8.453125 4.84375 -8.34375 5.28125 -8.125 C 5.71875 -7.90625 6.046875 -7.609375 6.265625 -7.234375 C 6.484375 -6.867188 6.59375 -6.445312 6.59375 -5.96875 C 6.59375 -5.382812 6.425781 -4.867188 6.09375 -4.421875 C 5.757812 -3.984375 5.253906 -3.691406 4.578125 -3.546875 L 6.703125 0 Z M 2.03125 -4.34375 L 3.65625 -4.34375 C 4.257812 -4.34375 4.707031 -4.488281 5 -4.78125 C 5.300781 -5.070312 5.453125 -5.46875 5.453125 -5.96875 C 5.453125 -6.46875 5.304688 -6.851562 5.015625 -7.125 C 4.722656 -7.40625 4.269531 -7.546875 3.65625 -7.546875 L 2.03125 -7.546875 Z M 2.03125 -4.34375 "/></g></g><g style="fill:#ffffff;fill-opacity:1;"><g transform="translate(151.950481, 123.732289)"><path style="stroke:none" d="M 2.03125 -7.546875 L 2.03125 -4.734375 L 5.109375 -4.734375 L 5.109375 -3.8125 L 2.03125 -3.8125 L 2.03125 -0.90625 L 5.484375 -0.90625 L 5.484375 0 L 0.9375 0 L 0.9375 -8.46875 L 5.484375 -8.46875 L 5.484375 -7.546875 Z M 2.03125 -7.546875 "/></g></g></g></svg>